<?xml version="1.0" encoding="utf-8"?>
<!-- Generator: Adobe Illustrator 24.0.3, SVG Export Plug-In . SVG Version: 6.00 Build 0)  -->
<svg version="1.1" id="Calque_1" xmlns="http://www.w3.org/2000/svg" xmlns:xlink="http://www.w3.org/1999/xlink" x="0px" y="0px"
	 viewBox="0 0 2436 562" style="enable-background:new 0 0 2436 562;" xml:space="preserve">
<style type="text/css">
	.st0{fill:#FFFFFF;}
</style>
<title>arrow-up</title>
<path class="st0" d="M2434,363.3c0.6,0.1,1.7,0.2,1.8,0.4c0.2,0.4,0.2,0.8,0.1,1.1v196.3c-2.6,0-5.2-0.1-7.9-0.1H4.2
	c-1.4,0-2.8,0-4.2,0.1v-32.5c2.2,0,4.3,0,6.4-0.1c20.7-1.4,41.5-2.8,62.2-4.2c48.9-3.4,97.9-6.7,146.8-10.1
	c51.9-3.5,103.7-7.1,155.6-10.6c48-3.3,96-6.5,144-9.8c44.3-3,88.6-5.9,132.8-8.9c60.6-4.1,121.2-8.2,181.8-12.4
	c39.2-2.7,78.5-5.3,117.7-7.9c40.9-2.8,81.8-5.6,122.8-8.4c42.3-2.9,84.6-5.7,127-8.6c40.6-2.7,81.2-5.5,121.9-8.2
	c48.9-3.3,97.8-6.7,146.7-10.1c44.2-3,88.5-6,132.8-9c60.8-4.1,121.6-8.3,182.4-12.4c39-2.6,77.9-5.2,116.9-7.9
	c40.9-2.8,81.8-5.6,122.7-8.4c52.2-3.5,104.3-7.1,156.5-10.6c30.8-2.1,61.5-4.2,92.3-6.2c43.3-3,86.6-5.9,129.9-8.9
	C2410.8,365,2422.4,364.2,2434,363.3z"/>
<path class="st0" d="M0,561.1c1.4-0.1,2.8-0.2,4.2-0.2h2423.9c2.6,0,5.2,0.1,7.9,0.2c-0.2,0.3-0.3,0.9-0.5,0.9c-1.2,0.1-2.5,0-3.7,0
	c-809.2,0-1618.4,0-2427.6,0C2.8,561.8,1.4,561.5,0,561.1z"/>
</svg>
