<?xml version="1.0" encoding="utf-8"?>
<!-- Generator: Adobe Illustrator 24.0.3, SVG Export Plug-In . SVG Version: 6.00 Build 0)  -->
<svg version="1.1" id="Calque_1" xmlns="http://www.w3.org/2000/svg" xmlns:xlink="http://www.w3.org/1999/xlink" x="0px" y="0px"
	 viewBox="0 0 2436 562" style="enable-background:new 0 0 2436 562;" xml:space="preserve">
<style type="text/css">
	.st0{fill:#FFFFFF;}
</style>
<title>arrow-up</title>
<path class="st0" d="M2434,412.3c0.6,0.1,1.7,0.1,1.8,0.3c0.2,0.3,0.2,0.6,0.1,0.9v147.7c-2.6,0-5.2-0.1-7.9-0.1H4.2
	c-1.4,0-2.8,0-4.2,0.1v-24.4c2.2,0,4.3,0,6.4-0.1c20.7-1,41.5-2.1,62.2-3.2c48.9-2.5,97.9-5.1,146.8-7.6c51.9-2.7,103.7-5.3,155.6-8
	c48-2.5,96-4.9,144-7.4c44.3-2.3,88.6-4.5,132.8-6.7c60.6-3.1,121.2-6.2,181.8-9.3c39.2-2,78.5-4,117.7-6
	c40.9-2.1,81.8-4.2,122.8-6.3c42.3-2.2,84.6-4.3,127-6.5c40.6-2.1,81.2-4.1,121.9-6.2c48.9-2.5,97.8-5.1,146.7-7.6
	c44.2-2.3,88.5-4.5,132.8-6.7c60.8-3.1,121.6-6.2,182.4-9.4c39-2,77.9-3.9,116.9-5.9c40.9-2.1,81.8-4.2,122.7-6.3
	c52.2-2.7,104.3-5.3,156.5-8c30.8-1.6,61.5-3.1,92.3-4.7c43.3-2.2,86.6-4.5,129.9-6.7C2410.8,413.6,2422.4,412.9,2434,412.3z"/>
<path class="st0" d="M0,561.1c1.4-0.1,2.8-0.2,4.2-0.2h2423.9c2.6,0,5.2,0.1,7.9,0.2c-0.2,0.3-0.3,0.9-0.5,0.9c-1.2,0.1-2.5,0-3.7,0
	c-809.2,0-1618.4,0-2427.6,0C2.8,561.8,1.4,561.5,0,561.1z"/>
</svg>
