<?xml version="1.0" encoding="utf-8"?>
<!-- Generator: Adobe Illustrator 24.0.3, SVG Export Plug-In . SVG Version: 6.00 Build 0)  -->
<svg version="1.1" id="Calque_1" xmlns="http://www.w3.org/2000/svg" xmlns:xlink="http://www.w3.org/1999/xlink" x="0px" y="0px"
	 viewBox="0 0 2436 562" style="enable-background:new 0 0 2436 562;" xml:space="preserve">
<style type="text/css">
	.st0{fill:#FFFFFF;}
</style>
<title>arrow-up</title>
<path class="st0" d="M2434.1,306.2c0.6,0.1,1.7,0.2,1.8,0.5c0.2,0.5,0.2,1,0.1,1.5v253c-2.6,0-5.2-0.1-7.9-0.1H4.2
	c-1.4,0-2.8,0.1-4.2,0.1v-41.8c2.2,0,4.3,0,6.4-0.1c20.7-1.8,41.5-3.6,62.2-5.5c48.9-4.3,97.9-8.7,146.8-13
	c51.9-4.6,103.7-9.1,155.6-13.6c48-4.2,96-8.4,144-12.7c44.3-3.9,88.6-7.6,132.8-11.5c60.6-5.3,121.2-10.6,181.8-16
	c39.2-3.4,78.5-6.8,117.7-10.2c40.9-3.6,81.8-7.3,122.8-10.9c42.3-3.7,84.6-7.4,127-11.1c40.6-3.5,81.2-7.1,121.9-10.6
	c48.9-4.3,97.8-8.7,146.7-13c44.2-3.9,88.5-7.7,132.8-11.5c60.8-5.3,121.6-10.7,182.4-16c39-3.4,77.9-6.8,116.9-10.2
	c40.9-3.6,81.8-7.3,122.7-10.9c52.2-4.6,104.3-9.1,156.5-13.6c30.8-2.7,61.5-5.4,92.3-8c43.3-3.8,86.6-7.6,129.9-11.5
	C2410.9,308.4,2422.5,307.3,2434.1,306.2z"/>
<path class="st0" d="M0,561.1c1.4-0.1,2.8-0.2,4.2-0.2h2423.9c2.6,0,5.2,0.1,7.9,0.2c-0.2,0.3-0.3,0.9-0.5,0.9c-1.2,0.1-2.5,0-3.7,0
	c-809.2,0-1618.4,0-2427.6,0C2.8,561.8,1.4,561.5,0,561.1z"/>
</svg>
