<?xml version="1.0" encoding="utf-8"?>
<!-- Generator: Adobe Illustrator 24.0.3, SVG Export Plug-In . SVG Version: 6.00 Build 0)  -->
<svg version="1.1" id="Calque_1" xmlns="http://www.w3.org/2000/svg" xmlns:xlink="http://www.w3.org/1999/xlink" x="0px" y="0px"
	 viewBox="0 0 2436 562" style="enable-background:new 0 0 2436 562;" xml:space="preserve">
<style type="text/css">
	.st0{fill:#FFFFFF;}
</style>
<title>arrow-up</title>
<path class="st0" d="M2434.1,402.2c0.6,0.1,1.7,0.1,1.8,0.3c0.2,0.3,0.2,0.6,0.1,0.9v157.8c-2.6,0-5.2-0.1-7.9-0.1H4.2
	c-1.4,0-2.8,0.1-4.2,0.1v-26.1c2.2,0,4.3,0,6.4-0.1c20.7-1.1,41.5-2.2,62.2-3.4c48.9-2.7,97.9-5.4,146.8-8.1
	c51.9-2.9,103.7-5.7,155.6-8.5c48-2.6,96-5.2,144-7.9c44.3-2.4,88.6-4.7,132.8-7.2c60.6-3.3,121.2-6.6,181.8-10
	c39.2-2.1,78.5-4.2,117.7-6.4c40.9-2.2,81.8-4.6,122.8-6.8c42.3-2.3,84.6-4.6,127-6.9c40.6-2.2,81.2-4.4,121.9-6.6
	c48.9-2.7,97.8-5.4,146.7-8.1c44.2-2.4,88.5-4.8,132.8-7.2c60.8-3.3,121.6-6.7,182.4-10c39-2.1,77.9-4.2,116.9-6.4
	c40.9-2.2,81.8-4.6,122.7-6.8c52.2-2.9,104.3-5.7,156.5-8.5c30.8-1.7,61.5-3.4,92.3-5c43.3-2.4,86.6-4.7,129.9-7.2
	C2410.9,403.5,2422.5,402.9,2434.1,402.2z"/>
<path class="st0" d="M0,561.1c1.4-0.1,2.8-0.2,4.2-0.2h2423.9c2.6,0,5.2,0.1,7.9,0.2c-0.2,0.3-0.3,0.9-0.5,0.9c-1.2,0.1-2.5,0-3.7,0
	c-809.2,0-1618.4,0-2427.6,0C2.8,561.8,1.4,561.5,0,561.1z"/>
</svg>
