<svg id="Calque_1" data-name="Calque 1" xmlns="http://www.w3.org/2000/svg" viewBox="0 0 2436 562"><defs><style>.cls-1{fill:#fff;}</style></defs><title>arrow-up</title><path class="cls-1" d="M2434.08,563c.62.31,1.66.51,1.77,1a12.93,12.93,0,0,1,.09,3.24v556.87c-2.63-.07-5.25-.21-7.88-.21H4.17c-1.39,0-2.78.14-4.17.21V1032a44.41,44.41,0,0,0,6.44-.26q31.12-5.91,62.22-12,73.41-14.28,146.82-28.58,77.78-15.06,155.58-30,72-13.89,144-27.85c44.26-8.5,88.56-16.8,132.82-25.32q90.93-17.49,181.82-35.17c39.21-7.56,78.46-14.93,117.67-22.5,40.94-7.91,81.84-16,122.77-23.92q63.46-12.27,127-24.37,60.93-11.7,121.87-23.4c48.91-9.47,97.78-19.13,146.69-28.58,44.25-8.56,88.55-16.88,132.81-25.4q91.23-17.56,182.45-35.26c39-7.51,77.94-14.89,116.89-22.42,40.91-7.91,81.8-16,122.72-23.89q78.24-15.09,156.54-30,46.14-8.83,92.29-17.7,65-12.57,129.92-25.25C2410.91,567.89,2422.48,565.39,2434.08,563Z" transform="translate(0 -563)"/><path class="cls-1" d="M0,1124.06c1.39-.07,2.78-.21,4.17-.21H2428.06c2.63,0,5.25.14,7.88.21-.16.31-.3.88-.47.89-1.24.08-2.48,0-3.72,0Q1218,1125,4.19,1125A20.36,20.36,0,0,1,0,1124.06Z" transform="translate(0 -563)"/></svg>